<svg width="30" height="30" viewBox="0 0 30 30" fill="none" xmlns="http://www.w3.org/2000/svg">
<g opacity="0.8">
<path d="M21.5741 15.4685C21.2889 15.4685 21.0591 15.2379 21.0591 14.9527C21.0625 11.6411 18.3884 8.94062 15.0462 8.94062C14.7619 8.94062 14.5312 8.70997 14.5312 8.42571C14.5312 8.1474 14.7534 7.90994 15.053 7.90994C18.9212 7.90994 22.0932 11.0403 22.0898 14.9536C22.089 15.2387 21.8583 15.4685 21.5741 15.4685Z" fill="url(#paint0_linear_210_588)"/>
<path d="M25.0475 15.4685C24.7624 15.4685 24.5326 15.2379 24.5326 14.9527C24.536 9.72617 20.3129 5.46729 15.0471 5.46729C14.7629 5.46729 14.5322 5.23664 14.5322 4.95238C14.5322 4.67492 14.7544 4.43661 15.0531 4.43661C20.8822 4.43661 25.5667 9.16615 25.5633 14.9536C25.5624 15.2387 25.3318 15.4685 25.0475 15.4685Z" fill="url(#paint1_linear_210_588)"/>
<path d="M28.2815 15.4685C27.9973 15.4685 27.7666 15.2378 27.7666 14.9536C27.77 7.93629 22.0949 2.2331 15.0462 2.2331C14.7619 2.2331 14.5312 2.00246 14.5312 1.71819C14.5312 1.44073 14.7525 1.20328 15.0513 1.20328C22.6439 1.20328 28.7998 7.35499 28.7964 14.9544C28.7964 15.2378 28.5658 15.4685 28.2815 15.4685Z" fill="url(#paint2_linear_210_588)"/>
<path d="M22.5727 30.0001C22.1395 30.0001 20.8603 29.9141 18.8696 29.0613C15.1222 27.4561 11.4787 24.3028 8.64366 21.3563C6.58657 19.3767 4.85374 17.4158 3.49369 15.5289C2.39663 14.0071 1.53702 12.5271 0.938704 11.1304C-0.0451611 8.83504 -0.00771298 7.48521 0.00335125 7.2886C0.0637789 4.28339 1.6383 1.92501 4.1669 0.39559C5.4061 -0.354224 7.01807 -0.00867951 7.83597 1.18285L10.9663 5.74046C11.3501 6.29963 11.5118 6.97795 11.4216 7.65032C11.3314 8.32268 10.9961 8.93377 10.4778 9.37208L9.47773 10.2172C9.47858 10.2206 9.47859 10.2249 9.47944 10.2283C9.98158 13.4037 16.5963 20.0184 19.7717 20.5206C19.7751 20.5214 19.7794 20.5214 19.7828 20.5223L20.6279 19.5222C21.5318 18.4516 23.1021 18.2396 24.2595 19.0337L28.8171 22.164C30.0087 22.9819 30.3542 24.5939 29.6044 25.8331C27.909 28.6323 25.3694 30.0001 22.5727 30.0001ZM1.03147 7.35329C1.02807 7.40861 0.971897 8.63844 1.93278 10.8351C2.84175 12.9126 4.86906 16.2966 9.36454 20.621C9.55263 20.7776 14.1698 25.8816 19.1649 28.0672C20.2134 28.526 21.5275 28.9668 22.6799 28.9668C25.8775 28.9073 27.7312 26.9395 28.7235 25.3003C29.1908 24.5275 28.9763 23.5232 28.2341 23.0134L23.6765 19.8831C22.9531 19.3861 21.9812 19.5171 21.4152 20.1869L20.3896 21.4006C20.2807 21.53 20.1147 21.5972 19.947 21.581C19.8364 21.57 19.7232 21.5555 19.6109 21.5385C16.7631 21.0865 12.1987 16.9094 9.96882 13.6335C9.11006 12.373 8.60281 11.2811 8.46153 10.39C8.44365 10.2776 8.42918 10.1653 8.41897 10.0538C8.4028 9.88529 8.47004 9.72018 8.5994 9.61124L9.81306 8.58567C10.4829 8.01969 10.6139 7.04774 10.1169 6.32431L6.98743 1.76585C6.47763 1.0237 5.47333 0.809222 4.70054 1.27647C3.06048 2.26885 1.0936 4.12253 1.03403 7.32009C1.03318 7.33371 1.03318 7.34052 1.03147 7.35329Z" fill="url(#paint3_linear_210_588)"/>
</g>
<defs>
<linearGradient id="paint0_linear_210_588" x1="20.0126" y1="15.6336" x2="20.0126" y2="8.15909" gradientUnits="userSpaceOnUse">
<stop stop-color="#F15C34"/>
<stop offset="1" stop-color="#FDC9BA"/>
</linearGradient>
<linearGradient id="paint1_linear_210_588" x1="22.5318" y1="15.7095" x2="22.5318" y2="4.80026" gradientUnits="userSpaceOnUse">
<stop stop-color="#F15C34"/>
<stop offset="1" stop-color="#FDC9BA"/>
</linearGradient>
<linearGradient id="paint2_linear_210_588" x1="24.8761" y1="15.7801" x2="24.8761" y2="1.6735" gradientUnits="userSpaceOnUse">
<stop stop-color="#F15C34"/>
<stop offset="1" stop-color="#FDC9BA"/>
</linearGradient>
<linearGradient id="paint3_linear_210_588" x1="21.7555" y1="30.6555" x2="21.7555" y2="0.988886" gradientUnits="userSpaceOnUse">
<stop stop-color="#F15C34"/>
<stop offset="1" stop-color="#FDC9BA"/>
</linearGradient>
</defs>
</svg>
