<svg width="30" height="40" viewBox="0 0 30 40" fill="none" xmlns="http://www.w3.org/2000/svg">
<g opacity="0.8">
<path d="M15 40C14.8033 40 14.6067 39.93 14.4483 39.7917C13.8583 39.27 0 26.9067 0 15C0 6.72833 6.73 0 15 0C23.27 0 30 6.72833 30 15C30 26.9067 16.1417 39.27 15.5517 39.7917C15.3933 39.93 15.1967 40 15 40ZM15 1.66667C7.64833 1.66667 1.66667 7.64833 1.66667 15C1.66667 24.8633 12.4183 35.5967 15 38.0317C17.5817 35.5967 28.3333 24.8633 28.3333 15C28.3333 7.64833 22.3517 1.66667 15 1.66667Z" fill="url(#paint0_linear_210_598)"/>
<path d="M15 23.3334C10.405 23.3334 6.6667 19.595 6.6667 15C6.6667 10.405 10.405 6.6667 15 6.6667C19.595 6.6667 23.3334 10.405 23.3334 15C23.3334 19.595 19.595 23.3334 15 23.3334ZM15 8.33337C11.3234 8.33337 8.33337 11.3234 8.33337 15C8.33337 18.6767 11.3234 21.6667 15 21.6667C18.6767 21.6667 21.6667 18.6767 21.6667 15C21.6667 11.3234 18.6767 8.33337 15 8.33337Z" fill="url(#paint1_linear_210_598)"/>
</g>
<defs>
<linearGradient id="paint0_linear_210_598" x1="0" y1="40" x2="0" y2="0" gradientUnits="userSpaceOnUse">
<stop stop-color="#F15C34"/>
<stop offset="1" stop-color="#FDC9BA"/>
</linearGradient>
<linearGradient id="paint1_linear_210_598" x1="0" y1="40" x2="0" y2="0" gradientUnits="userSpaceOnUse">
<stop stop-color="#F15C34"/>
<stop offset="1" stop-color="#FDC9BA"/>
</linearGradient>
</defs>
</svg>
