<svg width="30" height="23" viewBox="0 0 30 23" fill="none" xmlns="http://www.w3.org/2000/svg">
<path opacity="0.8" d="M3.4058 22.5464H26.5942C28.4742 22.5444 29.998 21.0208 30 19.1406V3.4058C29.998 1.52582 28.4742 0.00203803 26.5942 0H3.4058C1.52582 0.00203803 0.00203804 1.52582 0 3.4058V19.1406C0.00203804 21.0208 1.52582 22.5444 3.4058 22.5464ZM3.4058 21.5319C2.88247 21.5326 2.37341 21.3605 1.95788 21.0421L8.89266 13.9491C9.02129 13.8197 9.07043 13.6313 9.02174 13.4558C8.97305 13.2801 8.83401 13.1442 8.65738 13.0996C8.48053 13.0548 8.29348 13.1082 8.16712 13.24L1.2971 20.267C1.11141 19.9207 1.01427 19.5337 1.01449 19.1406V4.524L12.8032 14.5061C14.0725 15.5865 15.9384 15.5861 17.2067 14.5041L28.9855 4.51427V19.1406C28.986 19.5353 28.8881 19.9235 28.7011 20.2706L21.7899 13.2387C21.5931 13.0408 21.2736 13.0387 21.0743 13.2342C20.8752 13.4303 20.8716 13.7498 21.0664 13.9497L28.0392 21.0444C27.6241 21.3612 27.1164 21.5326 26.5942 21.5319H3.4058ZM3.4058 1.01449H26.5942C27.8315 1.0163 28.8637 1.96015 28.9755 3.19271L16.5507 13.7305C15.6601 14.49 14.3499 14.4905 13.4588 13.7317L1.024 3.20245C1.13043 1.96603 2.16463 1.0163 3.4058 1.01449Z" fill="url(#paint0_linear_210_587)"/>
<defs>
<linearGradient id="paint0_linear_210_587" x1="3.9" y1="22.8" x2="3.9" y2="3.31174e-09" gradientUnits="userSpaceOnUse">
<stop stop-color="#F15C34"/>
<stop offset="1" stop-color="#FDC9BA"/>
</linearGradient>
</defs>
</svg>
